# xmcd
#
# Track frame offsets:
#	150
#	14486
#	31490
#	58648
#	74381
#	100237
#	122563
#	139407
#	154410
#	172395
#	193766
#	212550
#	230425
#	251128
#	271697
#	288254
#	303311
#
# Disc length: 4245 seconds
#
# Revision: 0
# Processed by: cddbd v1.5.2PL0 Copyright (c) Steve Scherf et al.
# Submitted via: EasyCDDAExtractor 16.0.6.1
#
DISCID=02109311
DTITLE=Απόδημη Κομπανία - Ωδή σ'ένα φίλο
DYEAR=2012
DGENRE=Ethnic
TTITLE0=Καρδιοκλέφτρα
TTITLE1=Το Ξενιτεμένο
TTITLE2=Της Ελιάς Τα Φυλαράκια
TTITLE3=Μάγκας Σεβνταλής
TTITLE4=Σμυρνέικο Μινόρε Μανές
TTITLE5=Στους Ποδαράδες
TTITLE6=Βρόντα Κι'άστραφε
TTITLE7=Θα σε Πλανέψω
TTITLE8=Φα Ματζόρε Μανές
TTITLE9=Χασάπικο Μάγκικο/ Σερβικάκι Αλάνικο
TTITLE10=Νησάκια Μου Περήφανα
TTITLE11=Φταίς Εσύ Γιατί Μεθάω
TTITLE12=Μαριγούλα
TTITLE13=Πειραιώτικος Μανές
TTITLE14=Τέσσερα Μάτια, Δυό Καρδιές
TTITLE15=Ξενύχτης Πάλι Έμεινα
TTITLE16=Μιά Μικρή Στο Περιστέρι
EXTD=
EXTT0=
EXTT1=
EXTT2=
EXTT3=
EXTT4=
EXTT5=
EXTT6=
EXTT7=
EXTT8=
EXTT9=
EXTT10=
EXTT11=
EXTT12=
EXTT13=
EXTT14=
EXTT15=
EXTT16=
PLAYORDER=
